<?xml version="1.0" encoding="iso-8859-1"?>
<!-- Generator: Adobe Illustrator 19.0.0, SVG Export Plug-In . SVG Version: 6.00 Build 0)  -->
<svg version="1.1" id="Layer_1" xmlns="http://www.w3.org/2000/svg" xmlns:xlink="http://www.w3.org/1999/xlink" x="0px" y="0px"
	 viewBox="0 0 512.001 512.001" style="enable-background:new 0 0 512.001 512.001;" xml:space="preserve">
<path style="fill:#F0D296;" d="M26.265,37.209c-3.023-3.023-3.023-7.926,0-10.949s7.925-3.023,10.948,0l461.122,444.698
	c7.559,7.559,7.559,19.814,0,27.372c-7.558,7.559-19.813,7.559-27.372,0L26.265,37.209z"/>
<path style="fill:#FFEBC8;" d="M37.213,26.26c-3.024-3.024-7.926-3.024-10.949,0c-3.023,3.023-3.023,7.925,0,10.948l7.378,7.65
	l11.221-11.221L37.213,26.26z"/>
<polygon style="fill:#AA6455;" points="375.941,399.801 459.561,486.507 486.511,459.556 399.805,375.938 "/>
<path style="fill:#F0D296;" d="M485.741,37.181c3.017-3.017,3.017-7.909,0-10.926c-3.017-3.017-7.909-3.017-10.926,0L14.654,470.028
	c-7.542,7.542-7.542,19.772,0,27.314c7.543,7.543,19.772,7.543,27.315,0L485.741,37.181z"/>
<path style="fill:#FFEBC8;" d="M474.815,26.255c3.018-3.018,7.909-3.018,10.926,0c3.017,3.017,3.017,7.909,0,10.926l-7.363,7.634
	L467.18,33.617L474.815,26.255z"/>
<polygon style="fill:#AA6455;" points="136.793,399.018 53.347,485.543 26.453,458.649 112.979,375.205 "/>
<path style="fill:#2D2B29;" d="M503.699,464.099L287.322,255.428L507.378,27.245c6.178-6.243,6.158-16.348-0.061-22.567
	c-6.218-6.217-16.322-6.237-22.566-0.06L256.001,225.222L27.249,4.618C21.006-1.559,10.901-1.539,4.683,4.679
	s-6.238,16.322-0.061,22.566l220.056,228.184L8.301,464.099c-0.035,0.033-0.069,0.067-0.104,0.102
	c-10.917,10.917-10.917,28.681,0,39.599c5.289,5.289,12.32,8.201,19.799,8.201s14.511-2.913,19.799-8.201
	c0.034-0.034,0.068-0.069,0.101-0.104L256,287.907l208.103,215.788c0.033,0.035,0.067,0.069,0.102,0.104
	c5.289,5.289,12.32,8.201,19.799,8.201c7.479,0,14.511-2.913,19.799-8.201c10.917-10.917,10.917-28.681,0-39.599
	C503.768,464.166,503.734,464.132,503.699,464.099z M382.884,396.429l13.548-13.548l78.078,75.297l-16.328,16.329L382.884,396.429z
	 M495.9,16.094c0.035-0.033,0.07-0.068,0.104-0.102c-0.034,0.034-0.068,0.068-0.102,0.104L275.806,244.322l-8.281-7.986
	L495.9,16.094z M15.998,15.993c0.034,0.034,0.068,0.068,0.103,0.101l368.814,355.679l-13.137,13.138L16.098,16.096
	C16.065,16.061,16.032,16.027,15.998,15.993z M53.817,474.507l-16.328-16.328l78.078-75.297l13.547,13.548L53.817,474.507z
	 M27.997,496c-3.205,0-6.219-1.248-8.485-3.515c-4.664-4.665-4.679-12.244-0.043-16.927l6.503-6.271l16.738,16.739l-6.272,6.504
	C34.175,494.769,31.181,496,27.997,496z M140.224,384.91l-13.137-13.138l108.699-104.827l9.101,9.437L140.224,384.91z
	 M492.488,492.485c-2.266,2.267-5.279,3.515-8.485,3.515c-3.184,0-6.179-1.231-8.44-3.47l-6.272-6.504l16.738-16.739l6.504,6.272
	C497.168,480.242,497.153,487.821,492.488,492.485z"/>
<g>
</g>
<g>
</g>
<g>
</g>
<g>
</g>
<g>
</g>
<g>
</g>
<g>
</g>
<g>
</g>
<g>
</g>
<g>
</g>
<g>
</g>
<g>
</g>
<g>
</g>
<g>
</g>
<g>
</g>
</svg>
