<svg version="1.1"
     role="img"
     aria-labelledby="econ"
     xmlns="http://www.w3.org/2000/svg"
     width="32"
     height="32"
     viewBox="0 0 32 32">
    <title id="econ">econ</title>
    <path d="M23.072 20.296c1.424-0.478 2.282-0.388 3.010-0.030 0.722 0.364 1.306 0.996 1.586 1.824 0.274 0.83 0.192 1.688-0.172 2.41-0.364 0.72-1.002 1.304-2.428 1.782l-16.168 5.39c-1.426 0.476-2.284 0.386-3.012 0.030-0.72-0.364-1.304-0.996-1.586-1.824-0.274-0.83-0.19-1.688 0.174-2.41 0.362-0.722 0.994-1.306 2.426-1.782l16.17-5.39zM23.072 10.309c1.424-0.478 2.282-0.388 3.010-0.030 0.722 0.364 1.306 0.996 1.586 1.824 0.274 0.828 0.192 1.688-0.172 2.408-0.364 0.722-1.002 1.306-2.428 1.784l-16.168 5.39c-1.426 0.476-2.284 0.386-3.012 0.030-0.72-0.364-1.304-0.996-1.586-1.824-0.274-0.83-0.19-1.688 0.174-2.41 0.362-0.722 0.994-1.306 2.426-1.782l16.17-5.39zM23.072 0.329c1.424-0.478 2.282-0.388 3.010-0.030 0.722 0.364 1.306 0.996 1.586 1.824 0.274 0.828 0.192 1.688-0.172 2.408-0.364 0.722-1.002 1.306-2.428 1.784l-16.168 5.39c-1.426 0.476-2.284 0.386-3.012 0.030-0.72-0.364-1.304-0.996-1.586-1.824-0.274-0.83-0.19-1.688 0.174-2.412 0.362-0.72 0.994-1.304 2.426-1.78l16.17-5.39z" />
</svg>
